<svg width="40" height="40" viewBox="0 0 40 40" fill="none" xmlns="http://www.w3.org/2000/svg">
<path d="M14.2358 23.6351C15.4982 24.7218 16.9254 25.0978 17.1265 25.8641C17.3129 26.5737 16.7194 35.69 16.4254 40H25.5157C25.1009 35.747 24.2699 26.8117 24.5126 25.8641C24.8681 24.4778 26.7646 22.8423 27.544 21.7131C28.1599 20.821 28.4727 19.7591 28.4735 18.5566L28.4755 7.52737C28.4755 6.86958 27.8746 6.33458 27.14 6.33458C26.4053 6.33458 25.7817 6.86958 25.7817 7.52737V13.3092C25.7816 13.5429 25.5857 13.7191 25.3264 13.719C25.0673 13.719 24.8715 13.5435 24.8715 13.311V2.699C24.8715 2.699 24.9032 1.44312 23.5394 1.44312C22.1757 1.44312 22.207 2.7001 22.207 2.7001V12.5512C22.2086 12.5916 22.2041 12.7268 22.09 12.8349C22.0324 12.8901 21.9259 12.9556 21.747 12.9556C21.5669 12.9556 21.4599 12.89 21.4022 12.8349C21.2892 12.7283 21.2846 12.5961 21.2858 12.5572V1.19288C21.2856 0.535098 20.6881 0 19.9532 0C19.2189 0 18.6208 0.535098 18.6208 1.19288V12.5782C18.6235 12.6225 18.6208 12.7585 18.5087 12.8678C18.4506 12.9244 18.3437 12.9919 18.1604 12.9919C17.9816 12.9919 17.8755 12.9259 17.8179 12.8706C17.7044 12.7611 17.7003 12.6244 17.7026 12.5821L17.6999 2.64785C17.6999 1.98988 17.1023 1.45469 16.3679 1.45469C15.6329 1.45469 15.0354 1.98988 15.0354 2.64785V15.5109C15.0375 15.557 15.0345 15.7307 14.9016 15.8561C14.8449 15.9094 14.7435 15.9731 14.5815 15.9731C14.4176 15.9731 14.3168 15.9089 14.2609 15.8549C14.1306 15.7299 14.1302 15.5584 14.1332 15.5091V11.4594C14.1332 10.7909 13.5256 10.247 12.7788 10.247C12.0321 10.247 11.4249 10.7909 11.4249 11.4594V17.5553C11.4245 20.929 12.4271 22.0768 14.2358 23.6351ZM19.3572 15.1113C19.922 15.1113 20.4557 15.2772 20.8912 15.5836C21.3273 15.2772 21.8604 15.1113 22.4252 15.1113C23.7992 15.1113 24.917 16.1123 24.917 17.3424C24.917 18.9433 23.5869 19.7417 22.5184 20.3832C21.9217 20.741 21.3578 21.0795 21.2413 21.447C21.1967 21.5845 21.058 21.6803 20.8985 21.6832H20.8912C20.7347 21.6832 20.5952 21.5932 20.5461 21.4593C20.4063 21.0778 19.8431 20.7389 19.2469 20.3805C18.1863 19.7425 16.8658 18.9484 16.8658 17.3423C16.8658 16.1123 17.9838 15.1113 19.3572 15.1113Z" fill="white"/>
<path d="M26.5248 40H32.0105C32.4907 36.7054 33.3968 30.6429 33.6296 30.177C33.8939 29.6488 34.9822 29.5546 36.0625 28.9271C37.6102 28.0269 38.5122 27.3232 39.0356 24.8878L39.9819 20.4869C40.0854 20.0043 39.7311 19.5361 39.1922 19.4432C38.6529 19.3503 38.1304 19.6672 38.0263 20.1499L37.3981 23.0734C37.3922 23.1091 37.3656 23.2332 37.2519 23.3073C37.2034 23.3395 37.1209 23.373 37.003 23.3525C36.8852 23.3324 36.8217 23.2738 36.7894 23.2282C36.7128 23.1213 36.7377 22.9957 36.7463 22.9622L38.7427 13.676C38.8446 13.2011 38.4961 12.7403 37.9655 12.649C37.4356 12.5575 36.9206 12.8695 36.8187 13.3443L35.2756 20.5161C35.2699 20.5468 35.2464 20.6451 35.1469 20.7099C35.0969 20.7427 35.0098 20.7773 34.8806 20.7549C34.749 20.7319 34.6816 20.6702 34.6487 20.622C34.5847 20.5289 34.6038 20.4308 34.6124 20.399L36.3795 12.1794C36.4816 11.7044 36.1329 11.2438 35.6025 11.1521C35.0725 11.0609 34.5575 11.3728 34.4558 11.8477L32.6917 20.0521C32.687 20.0805 32.6632 20.1751 32.5653 20.2382C32.5151 20.2707 32.4275 20.3048 32.2973 20.2822C32.1682 20.26 32.1021 20.1996 32.0687 20.1526C32.0033 20.0604 32.0206 19.9625 32.0282 19.9335L33.5572 12.8214C33.5572 12.8214 33.7743 11.9177 32.7901 11.7481C31.8058 11.5785 31.6331 12.4891 31.6331 12.4891L29.9867 20.1503C29.9504 20.3181 29.78 20.4301 29.595 20.3883C29.3866 20.3413 29.3294 20.036 29.3294 20.036C28.8369 21.4673 28.3332 22.3924 27.5402 23.2377C26.8391 23.9853 26.4682 24.4819 26.4682 24.4819C26.4729 24.9771 26.5674 25.4463 26.7532 25.8839C27.1406 26.7956 28.2561 28.2127 28.2976 29.2573C28.3193 29.7993 27.1808 33.5832 26.2112 36.6966C26.3153 37.8284 26.4218 38.9474 26.5248 40ZM29.3279 23.0552C29.5185 22.1674 30.4808 21.5836 31.4728 21.7547C31.8809 21.825 32.2401 22.011 32.5073 22.2865C32.8692 22.1193 33.2804 22.0658 33.6876 22.136C34.6797 22.3073 35.331 23.1687 35.1406 24.0569C34.8909 25.2165 33.815 25.6254 32.9496 25.9541C32.4642 26.1389 32.0047 26.3128 31.8444 26.5712C31.7887 26.6617 31.6739 26.7095 31.5604 26.6899C31.5586 26.6895 31.5571 26.6893 31.5552 26.689C31.4406 26.6673 31.3553 26.581 31.3447 26.4761C31.3172 26.1961 30.9631 25.8817 30.5871 25.549C29.9156 24.9527 29.0796 24.2108 29.3279 23.0552Z" fill="white"/>
<path d="M6.37006 30.177C6.60298 30.6429 7.50913 36.7054 7.98934 40H14.8308C13.9951 37.383 11.6719 30.0298 11.7024 29.2577C11.7437 28.2131 12.8592 26.7958 13.2467 25.8843C13.4576 25.3864 13.552 24.8491 13.5293 24.2776C12.1556 23.0933 11.1288 22.0543 10.675 20.1167C10.6659 20.2511 10.5616 20.3617 10.4049 20.3886C10.2181 20.4211 10.0493 20.3185 10.0132 20.1506L8.36677 12.4895C8.36677 12.4895 8.19416 11.5788 7.20985 11.7485C6.22555 11.9182 6.44247 12.8218 6.44247 12.8218L7.9717 19.9339C7.97929 19.9626 7.99662 20.0607 7.93119 20.1529C7.89785 20.1999 7.83149 20.2604 7.70257 20.2826C7.57221 20.3052 7.48483 20.2713 7.43447 20.2386C7.33662 20.1754 7.31283 20.0807 7.30811 20.0525L5.54431 11.848C5.44237 11.3732 4.92729 11.0613 4.39744 11.1525C3.86688 11.2441 3.51796 11.7048 3.62032 12.1797L5.38729 20.3994C5.39611 20.4312 5.41519 20.5292 5.35108 20.6224C5.31837 20.6706 5.25078 20.7323 5.11919 20.7552C4.98996 20.7776 4.90308 20.743 4.85293 20.7102C4.75355 20.6455 4.72985 20.5471 4.72432 20.5165L3.18124 13.3447C3.07929 12.8698 2.56432 12.5579 2.03447 12.6493C1.5038 12.7405 1.15529 13.2014 1.25724 13.6764L3.25365 22.9626C3.26216 22.9959 3.28719 23.1213 3.21047 23.2285C3.17806 23.2741 3.11468 23.3327 2.99693 23.3529C2.87909 23.3733 2.79652 23.3397 2.74801 23.3077C2.63447 23.2336 2.6077 23.1095 2.60175 23.0738L1.97365 20.1503C1.86945 19.6676 1.34698 19.3507 0.807703 19.4435C0.268831 19.5366 -0.0855277 20.0047 0.0179594 20.4873L0.964215 24.8882C1.4877 27.3236 2.38975 28.0274 3.93744 28.9274C5.01775 29.5546 6.10575 29.6488 6.37006 30.177ZM6.31231 22.1361C6.71949 22.0658 7.13057 22.1192 7.49262 22.2866C7.7597 22.0111 8.11878 21.8251 8.52708 21.7548C9.51908 21.5836 10.4813 22.1675 10.672 23.0553C10.9204 24.2109 10.0843 24.9527 9.41272 25.5491C9.03672 25.8818 8.68257 26.1962 8.65518 26.4762C8.64462 26.5813 8.55929 26.6674 8.44472 26.6891C8.44277 26.6894 8.44134 26.6896 8.43949 26.69C8.32616 26.7095 8.21129 26.6618 8.15559 26.5712C7.99519 26.313 7.5358 26.139 7.05026 25.9542C6.18483 25.6255 5.10883 25.2166 4.85929 24.057C4.66883 23.1688 5.32021 22.3074 6.31231 22.1361Z" fill="white"/>
</svg>
