<svg width="36" height="36" viewBox="0 0 36 36" fill="none" xmlns="http://www.w3.org/2000/svg">
<path d="M3 5.66667C3 4.73325 3 4.26653 3.18165 3.91002C3.34145 3.59642 3.59642 3.34145 3.91002 3.18165C4.26653 3 4.73325 3 5.66667 3H30.3333C31.2668 3 31.7335 3 32.09 3.18165C32.4037 3.34145 32.6585 3.59642 32.8183 3.91002C33 4.26653 33 4.73325 33 5.66667V8.5621C33 8.96975 33 9.17357 32.954 9.36538C32.9132 9.53545 32.8458 9.69802 32.7543 9.84713C32.6513 10.0153 32.5072 10.1595 32.219 10.4477L22.1143 20.5523C21.8262 20.8405 21.682 20.9847 21.579 21.1528C21.4875 21.302 21.4202 21.4645 21.3793 21.6347C21.3333 21.8265 21.3333 22.0303 21.3333 22.4378V26.3333L14.6667 33V22.4378C14.6667 22.0303 14.6667 21.8265 14.6206 21.6347C14.5798 21.4645 14.5124 21.302 14.4211 21.1528C14.318 20.9847 14.1739 20.8405 13.8856 20.5523L3.78105 10.4477C3.4928 10.1595 3.34867 10.0153 3.2456 9.84713C3.15422 9.69802 3.08688 9.53545 3.04605 9.36538C3 9.17357 3 8.96975 3 8.5621V5.66667Z" stroke="#6BB1E4" stroke-width="5" stroke-linecap="round" stroke-linejoin="round"/>
</svg>
