<svg width="46" height="46" viewBox="0 0 46 46" fill="none" xmlns="http://www.w3.org/2000/svg">
<path d="M16.0396 34.1111H8.15717C5.23587 34.1111 3.77524 34.1111 3.46791 33.894C3.12265 33.65 3.03829 33.506 3.00089 33.0969C2.96763 32.7327 3.86285 31.3302 5.65333 28.5258C7.50196 25.63 9.07168 21.4138 9.07168 15.4444C9.07168 12.144 10.5391 8.97869 13.1512 6.64489C15.7632 4.31111 19.3059 3 22.9999 3C26.694 3 30.2366 4.31111 32.8486 6.64489C35.4609 8.97869 36.9282 12.144 36.9282 15.4444C36.9282 21.4138 38.498 25.63 40.3467 28.5258C42.1369 31.3302 43.0323 32.7327 42.9991 33.0969C42.9617 33.506 42.8772 33.65 42.532 33.894C42.2247 34.1111 40.7641 34.1111 37.8429 34.1111H29.9641M16.0396 34.1111L16.0358 36.3333C16.0358 40.0153 19.1539 43 22.9999 43C26.8462 43 29.9641 40.0153 29.9641 36.3333V34.1111M16.0396 34.1111H29.9641" stroke="#4A7DA3" stroke-width="5" stroke-linecap="round" stroke-linejoin="round"/>
</svg>
