<svg width="262" height="284" viewBox="0 0 262 284" fill="none" xmlns="http://www.w3.org/2000/svg">
<rect width="262" height="284" fill="white"/>
<path d="M163.271 179.312H143.104" stroke="#292D32" stroke-width="7" stroke-linecap="round" stroke-linejoin="round"/>
<path d="M153.188 189.396V169.229" stroke="#292D32" stroke-width="7" stroke-linecap="round" stroke-linejoin="round"/>
<path d="M131.307 135.803C130.803 135.752 130.198 135.752 129.643 135.803C117.644 135.399 108.115 125.568 108.115 113.468C108.065 101.116 118.097 91.0833 130.45 91.0833C142.802 91.0833 152.835 101.116 152.835 113.468C152.835 125.568 143.256 135.399 131.307 135.803Z" stroke="#292D32" stroke-width="7" stroke-linecap="round" stroke-linejoin="round"/>
<path d="M130.45 190.959C121.274 190.959 112.149 188.64 105.191 184.002C92.9903 175.834 92.9903 162.524 105.191 154.407C119.056 145.131 141.793 145.131 155.658 154.407" stroke="#292D32" stroke-width="7" stroke-linecap="round" stroke-linejoin="round"/>
</svg>
