<svg width="36" height="35" viewBox="0 0 36 35" fill="none" xmlns="http://www.w3.org/2000/svg">
<path fill-rule="evenodd" clip-rule="evenodd" d="M15.4005 0C6.89503 0 0 6.7035 0 14.9727C0 23.2419 6.89503 29.9454 15.4005 29.9454C18.7756 29.9454 21.8972 28.8898 24.4351 27.0997L32.0864 34.5384C32.7194 35.1539 33.7459 35.1539 34.3789 34.5384L35.5252 33.424C36.1583 32.8085 36.1583 31.8105 35.5252 31.1951L27.8739 23.7563C29.7152 21.289 30.801 18.2541 30.801 14.9727C30.801 6.7035 23.9059 0 15.4005 0ZM4.86331 14.9727C4.86331 9.31484 9.58097 4.72822 15.4005 4.72822C21.2201 4.72822 25.9377 9.31484 25.9377 14.9727C25.9377 20.6307 21.2201 25.2172 15.4005 25.2172C9.58097 25.2172 4.86331 20.6307 4.86331 14.9727Z" fill="#6BB1E4"/>
</svg>
