<svg width="189" height="52" viewBox="0 0 189 52" fill="none" xmlns="http://www.w3.org/2000/svg">
<path d="M65.3959 18.94V40H60.2659V31.33H52.2859V40H47.1559V18.94H52.2859V27.19H60.2659V18.94H65.3959ZM68.0793 31.6C68.0793 29.88 68.3993 28.37 69.0393 27.07C69.6993 25.77 70.5893 24.77 71.7093 24.07C72.8293 23.37 74.0793 23.02 75.4593 23.02C76.6393 23.02 77.6693 23.26 78.5493 23.74C79.4493 24.22 80.1393 24.85 80.6193 25.63V23.26H85.7493V40H80.6193V37.63C80.1193 38.41 79.4193 39.04 78.5193 39.52C77.6393 40 76.6093 40.24 75.4293 40.24C74.0693 40.24 72.8293 39.89 71.7093 39.19C70.5893 38.47 69.6993 37.46 69.0393 36.16C68.3993 34.84 68.0793 33.32 68.0793 31.6ZM80.6193 31.63C80.6193 30.35 80.2593 29.34 79.5393 28.6C78.8393 27.86 77.9793 27.49 76.9593 27.49C75.9393 27.49 75.0693 27.86 74.3493 28.6C73.6493 29.32 73.2993 30.32 73.2993 31.6C73.2993 32.88 73.6493 33.9 74.3493 34.66C75.0693 35.4 75.9393 35.77 76.9593 35.77C77.9793 35.77 78.8393 35.4 79.5393 34.66C80.2593 33.92 80.6193 32.91 80.6193 31.63ZM99.6606 23.08C101.621 23.08 103.181 23.72 104.341 25C105.521 26.26 106.111 28 106.111 30.22V40H101.011V30.91C101.011 29.79 100.721 28.92 100.141 28.3C99.5606 27.68 98.7806 27.37 97.8006 27.37C96.8206 27.37 96.0406 27.68 95.4606 28.3C94.8806 28.92 94.5906 29.79 94.5906 30.91V40H89.4606V23.26H94.5906V25.48C95.1106 24.74 95.8106 24.16 96.6906 23.74C97.5706 23.3 98.5606 23.08 99.6606 23.08ZM108.655 31.6C108.655 29.88 108.975 28.37 109.615 27.07C110.275 25.77 111.165 24.77 112.285 24.07C113.405 23.37 114.655 23.02 116.035 23.02C117.135 23.02 118.135 23.25 119.035 23.71C119.955 24.17 120.675 24.79 121.195 25.57V17.8H126.325V40H121.195V37.6C120.715 38.4 120.025 39.04 119.125 39.52C118.245 40 117.215 40.24 116.035 40.24C114.655 40.24 113.405 39.89 112.285 39.19C111.165 38.47 110.275 37.46 109.615 36.16C108.975 34.84 108.655 33.32 108.655 31.6ZM121.195 31.63C121.195 30.35 120.835 29.34 120.115 28.6C119.415 27.86 118.555 27.49 117.535 27.49C116.515 27.49 115.645 27.86 114.925 28.6C114.225 29.32 113.875 30.32 113.875 31.6C113.875 32.88 114.225 33.9 114.925 34.66C115.645 35.4 116.515 35.77 117.535 35.77C118.555 35.77 119.415 35.4 120.115 34.66C120.835 33.92 121.195 32.91 121.195 31.63ZM136.847 40.24C135.387 40.24 134.087 39.99 132.947 39.49C131.807 38.99 130.907 38.31 130.247 37.45C129.587 36.57 129.217 35.59 129.137 34.51H134.207C134.267 35.09 134.537 35.56 135.017 35.92C135.497 36.28 136.087 36.46 136.787 36.46C137.427 36.46 137.917 36.34 138.257 36.1C138.617 35.84 138.797 35.51 138.797 35.11C138.797 34.63 138.547 34.28 138.047 34.06C137.547 33.82 136.737 33.56 135.617 33.28C134.417 33 133.417 32.71 132.617 32.41C131.817 32.09 131.127 31.6 130.547 30.94C129.967 30.26 129.677 29.35 129.677 28.21C129.677 27.25 129.937 26.38 130.457 25.6C130.997 24.8 131.777 24.17 132.797 23.71C133.837 23.25 135.067 23.02 136.487 23.02C138.587 23.02 140.237 23.54 141.437 24.58C142.657 25.62 143.357 27 143.537 28.72H138.797C138.717 28.14 138.457 27.68 138.017 27.34C137.597 27 137.037 26.83 136.337 26.83C135.737 26.83 135.277 26.95 134.957 27.19C134.637 27.41 134.477 27.72 134.477 28.12C134.477 28.6 134.727 28.96 135.227 29.2C135.747 29.44 136.547 29.68 137.627 29.92C138.867 30.24 139.877 30.56 140.657 30.88C141.437 31.18 142.117 31.68 142.697 32.38C143.297 33.06 143.607 33.98 143.627 35.14C143.627 36.12 143.347 37 142.787 37.78C142.247 38.54 141.457 39.14 140.417 39.58C139.397 40.02 138.207 40.24 136.847 40.24ZM156.725 40.21C154.745 40.21 152.925 39.75 151.265 38.83C149.625 37.91 148.315 36.63 147.335 34.99C146.375 33.33 145.895 31.47 145.895 29.41C145.895 27.35 146.375 25.5 147.335 23.86C148.315 22.22 149.625 20.94 151.265 20.02C152.925 19.1 154.745 18.64 156.725 18.64C158.705 18.64 160.515 19.1 162.155 20.02C163.815 20.94 165.115 22.22 166.055 23.86C167.015 25.5 167.495 27.35 167.495 29.41C167.495 31.47 167.015 33.33 166.055 34.99C165.095 36.63 163.795 37.91 162.155 38.83C160.515 39.75 158.705 40.21 156.725 40.21ZM156.725 35.53C158.405 35.53 159.745 34.97 160.745 33.85C161.765 32.73 162.275 31.25 162.275 29.41C162.275 27.55 161.765 26.07 160.745 24.97C159.745 23.85 158.405 23.29 156.725 23.29C155.025 23.29 153.665 23.84 152.645 24.94C151.645 26.04 151.145 27.53 151.145 29.41C151.145 31.27 151.645 32.76 152.645 33.88C153.665 34.98 155.025 35.53 156.725 35.53ZM180.549 23.08C182.509 23.08 184.069 23.72 185.229 25C186.409 26.26 186.999 28 186.999 30.22V40H181.899V30.91C181.899 29.79 181.609 28.92 181.029 28.3C180.449 27.68 179.669 27.37 178.689 27.37C177.709 27.37 176.929 27.68 176.349 28.3C175.769 28.92 175.479 29.79 175.479 30.91V40H170.349V23.26H175.479V25.48C175.999 24.74 176.699 24.16 177.579 23.74C178.459 23.3 179.449 23.08 180.549 23.08Z" fill="white"/>
<path d="M14.2358 23.6351C15.4982 24.7218 16.9254 25.0978 17.1265 25.8641C17.3129 26.5737 16.7194 35.69 16.4254 40H25.5157C25.1009 35.747 24.2699 26.8117 24.5126 25.8641C24.8681 24.4778 26.7646 22.8423 27.544 21.7131C28.1599 20.821 28.4727 19.7591 28.4735 18.5566L28.4755 7.52737C28.4755 6.86958 27.8746 6.33458 27.14 6.33458C26.4053 6.33458 25.7817 6.86958 25.7817 7.52737V13.3092C25.7816 13.5429 25.5857 13.7191 25.3264 13.719C25.0673 13.719 24.8715 13.5435 24.8715 13.311V2.699C24.8715 2.699 24.9032 1.44312 23.5394 1.44312C22.1757 1.44312 22.207 2.7001 22.207 2.7001V12.5512C22.2086 12.5916 22.2041 12.7268 22.09 12.8349C22.0324 12.8901 21.9259 12.9556 21.747 12.9556C21.5669 12.9556 21.4599 12.89 21.4022 12.8349C21.2892 12.7283 21.2846 12.5961 21.2858 12.5572V1.19288C21.2856 0.535098 20.6881 0 19.9532 0C19.2189 0 18.6208 0.535098 18.6208 1.19288V12.5782C18.6235 12.6225 18.6208 12.7585 18.5087 12.8678C18.4506 12.9244 18.3437 12.9919 18.1604 12.9919C17.9816 12.9919 17.8755 12.9259 17.8179 12.8706C17.7044 12.7611 17.7003 12.6244 17.7026 12.5821L17.6999 2.64785C17.6999 1.98988 17.1023 1.45469 16.3679 1.45469C15.6329 1.45469 15.0354 1.98988 15.0354 2.64785V15.5109C15.0375 15.557 15.0345 15.7307 14.9016 15.8561C14.8449 15.9094 14.7435 15.9731 14.5815 15.9731C14.4176 15.9731 14.3168 15.9089 14.2609 15.8549C14.1306 15.7299 14.1302 15.5584 14.1332 15.5091V11.4594C14.1332 10.7909 13.5256 10.247 12.7788 10.247C12.0321 10.247 11.4249 10.7909 11.4249 11.4594V17.5553C11.4245 20.929 12.4271 22.0768 14.2358 23.6351ZM19.3572 15.1113C19.922 15.1113 20.4557 15.2772 20.8912 15.5836C21.3273 15.2772 21.8604 15.1113 22.4252 15.1113C23.7992 15.1113 24.917 16.1123 24.917 17.3424C24.917 18.9433 23.5869 19.7417 22.5184 20.3832C21.9217 20.741 21.3578 21.0795 21.2413 21.447C21.1967 21.5845 21.058 21.6803 20.8985 21.6832H20.8912C20.7347 21.6832 20.5952 21.5932 20.5461 21.4593C20.4063 21.0778 19.8431 20.7389 19.2469 20.3805C18.1863 19.7425 16.8658 18.9484 16.8658 17.3423C16.8658 16.1123 17.9838 15.1113 19.3572 15.1113Z" fill="#6BB1E4"/>
<path d="M26.5248 40H32.0105C32.4907 36.7054 33.3968 30.6429 33.6296 30.177C33.8939 29.6487 34.9822 29.5546 36.0625 28.927C37.6102 28.0268 38.5122 27.3232 39.0356 24.8878L39.9819 20.4869C40.0854 20.0043 39.7311 19.5361 39.1922 19.4431C38.6529 19.3503 38.1304 19.6672 38.0263 20.1499L37.3981 23.0734C37.3922 23.1091 37.3656 23.2332 37.2519 23.3073C37.2034 23.3395 37.1209 23.3729 37.003 23.3525C36.8852 23.3323 36.8217 23.2738 36.7894 23.2281C36.7128 23.1212 36.7377 22.9957 36.7463 22.9622L38.7427 13.676C38.8446 13.201 38.4961 12.7402 37.9655 12.6489C37.4356 12.5575 36.9206 12.8694 36.8187 13.3443L35.2756 20.5161C35.2699 20.5468 35.2464 20.6451 35.1469 20.7098C35.0969 20.7426 35.0098 20.7772 34.8806 20.7548C34.749 20.7319 34.6816 20.6702 34.6487 20.622C34.5847 20.5288 34.6038 20.4308 34.6124 20.399L36.3795 12.1793C36.4816 11.7044 36.1329 11.2437 35.6025 11.1521C35.0725 11.0609 34.5575 11.3728 34.4558 11.8476L32.6917 20.0521C32.687 20.0804 32.6632 20.1751 32.5653 20.2382C32.5151 20.2707 32.4275 20.3048 32.2973 20.2822C32.1682 20.26 32.1021 20.1995 32.0687 20.1525C32.0033 20.0603 32.0206 19.9624 32.0282 19.9335L33.5572 12.8214C33.5572 12.8214 33.7743 11.9177 32.7901 11.7481C31.8058 11.5785 31.6331 12.4891 31.6331 12.4891L29.9867 20.1502C29.9504 20.3181 29.78 20.43 29.595 20.3883C29.3866 20.3412 29.3294 20.036 29.3294 20.036C28.8369 21.4673 28.3332 22.3924 27.5402 23.2377C26.8391 23.9853 26.4682 24.4819 26.4682 24.4819C26.4729 24.977 26.5674 25.4463 26.7532 25.8839C27.1406 26.7956 28.2561 28.2127 28.2976 29.2573C28.3193 29.7993 27.1808 33.5831 26.2112 36.6966C26.3153 37.8284 26.4218 38.9473 26.5248 40ZM29.3279 23.0552C29.5185 22.1674 30.4808 21.5835 31.4728 21.7547C31.8809 21.8249 32.2401 22.011 32.5073 22.2865C32.8692 22.1193 33.2804 22.0658 33.6876 22.136C34.6797 22.3072 35.331 23.1687 35.1406 24.0569C34.8909 25.2164 33.815 25.6254 32.9496 25.9541C32.4642 26.1389 32.0047 26.3128 31.8444 26.5711C31.7887 26.6617 31.6739 26.7094 31.5604 26.6899C31.5586 26.6895 31.5571 26.6893 31.5552 26.6889C31.4406 26.6673 31.3553 26.581 31.3447 26.4761C31.3172 26.1961 30.9631 25.8817 30.5871 25.549C29.9156 24.9527 29.0796 24.2108 29.3279 23.0552Z" fill="#6BB1E4"/>
<path d="M6.37006 30.177C6.60298 30.6429 7.50913 36.7054 7.98934 40H14.8308C13.9951 37.383 11.6719 30.0297 11.7024 29.2576C11.7437 28.2131 12.8592 26.7957 13.2467 25.8842C13.4576 25.3864 13.552 24.849 13.5293 24.2776C12.1556 23.0933 11.1288 22.0542 10.675 20.1167C10.6659 20.2511 10.5616 20.3617 10.4049 20.3886C10.2181 20.421 10.0493 20.3185 10.0132 20.1506L8.36677 12.4894C8.36677 12.4894 8.19416 11.5787 7.20985 11.7484C6.22555 11.9182 6.44247 12.8218 6.44247 12.8218L7.9717 19.9339C7.97929 19.9626 7.99662 20.0607 7.93119 20.1529C7.89785 20.1999 7.83149 20.2603 7.70257 20.2826C7.57221 20.3051 7.48483 20.2713 7.43447 20.2386C7.33662 20.1754 7.31283 20.0806 7.30811 20.0524L5.54431 11.848C5.44237 11.3731 4.92729 11.0613 4.39744 11.1525C3.86688 11.2441 3.51796 11.7047 3.62032 12.1797L5.38729 20.3994C5.39611 20.4311 5.41519 20.5292 5.35108 20.6223C5.31837 20.6705 5.25078 20.7323 5.11919 20.7552C4.98996 20.7776 4.90308 20.743 4.85293 20.7102C4.75355 20.6455 4.72985 20.5471 4.72432 20.5164L3.18124 13.3446C3.07929 12.8698 2.56432 12.5578 2.03447 12.6493C1.5038 12.7405 1.15529 13.2014 1.25724 13.6763L3.25365 22.9625C3.26216 22.9959 3.28719 23.1213 3.21047 23.2285C3.17806 23.274 3.11468 23.3327 2.99693 23.3528C2.87909 23.3733 2.79652 23.3397 2.74801 23.3076C2.63447 23.2335 2.6077 23.1095 2.60175 23.0738L1.97365 20.1502C1.86945 19.6676 1.34698 19.3507 0.807703 19.4435C0.268831 19.5365 -0.0855277 20.0047 0.0179594 20.4872L0.964215 24.8881C1.4877 27.3236 2.38975 28.0274 3.93744 28.9274C5.01775 29.5546 6.10575 29.6487 6.37006 30.177ZM6.31231 22.1361C6.71949 22.0657 7.13057 22.1192 7.49262 22.2866C7.7597 22.0111 8.11878 21.825 8.52708 21.7548C9.51908 21.5836 10.4813 22.1675 10.672 23.0553C10.9204 24.2109 10.0843 24.9527 9.41272 25.549C9.03672 25.8818 8.68257 26.1962 8.65518 26.4762C8.64462 26.5812 8.55929 26.6674 8.44472 26.689C8.44277 26.6894 8.44134 26.6896 8.43949 26.69C8.32616 26.7095 8.21129 26.6618 8.15559 26.5712C7.99519 26.313 7.5358 26.139 7.05026 25.9542C6.18483 25.6255 5.10883 25.2165 4.85929 24.057C4.66883 23.1688 5.32021 22.3073 6.31231 22.1361Z" fill="#6BB1E4"/>
</svg>
