<svg width="51" height="47" viewBox="0 0 51 47" fill="none" xmlns="http://www.w3.org/2000/svg">
<path d="M7.88507 46.2304H42.1875C47.4361 46.2304 50.0724 43.6188 50.0724 38.4459V7.78457C50.0724 2.61161 47.4361 0 42.1875 0H7.88507C2.66186 0 0 2.58643 0 7.78457V38.4459C0 43.644 2.66186 46.2304 7.88507 46.2304ZM7.53354 42.1875C5.29854 42.1875 4.04304 41.0072 4.04304 38.6718V14.9916C4.04304 12.6813 5.29854 11.476 7.53354 11.476H42.514C44.7489 11.476 46.0295 12.6813 46.0295 14.9916V38.6718C46.0295 41.0072 44.7489 42.1875 42.514 42.1875H7.53354ZM20.1145 20.4911H21.596C22.4749 20.4911 22.7762 20.2399 22.7762 19.361V17.8795C22.7762 17.0006 22.4749 16.7244 21.596 16.7244H20.1145C19.2355 16.7244 18.9592 17.0006 18.9592 17.8795V19.361C18.9592 20.2399 19.2355 20.4911 20.1145 20.4911ZM28.4766 20.4911H29.933C30.8371 20.4911 31.1133 20.2399 31.1133 19.361V17.8795C31.1133 17.0006 30.8371 16.7244 29.933 16.7244H28.4766C27.5976 16.7244 27.2964 17.0006 27.2964 17.8795V19.361C27.2964 20.2399 27.5976 20.4911 28.4766 20.4911ZM36.8136 20.4911H38.2952C39.1741 20.4911 39.4755 20.2399 39.4755 19.361V17.8795C39.4755 17.0006 39.1741 16.7244 38.2952 16.7244H36.8136C35.9347 16.7244 35.6334 17.0006 35.6334 17.8795V19.361C35.6334 20.2399 35.9347 20.4911 36.8136 20.4911ZM11.7774 28.7026H13.2589C14.1378 28.7026 14.4392 28.4515 14.4392 27.5726V26.091C14.4392 25.2121 14.1378 24.961 13.2589 24.961H11.7774C10.8985 24.961 10.5971 25.2121 10.5971 26.091V27.5726C10.5971 28.4515 10.8985 28.7026 11.7774 28.7026ZM20.1145 28.7026H21.596C22.4749 28.7026 22.7762 28.4515 22.7762 27.5726V26.091C22.7762 25.2121 22.4749 24.961 21.596 24.961H20.1145C19.2355 24.961 18.9592 25.2121 18.9592 26.091V27.5726C18.9592 28.4515 19.2355 28.7026 20.1145 28.7026ZM28.4766 28.7026H29.933C30.8371 28.7026 31.1133 28.4515 31.1133 27.5726V26.091C31.1133 25.2121 30.8371 24.961 29.933 24.961H28.4766C27.5976 24.961 27.2964 25.2121 27.2964 26.091V27.5726C27.2964 28.4515 27.5976 28.7026 28.4766 28.7026ZM36.8136 28.7026H38.2952C39.1741 28.7026 39.4755 28.4515 39.4755 27.5726V26.091C39.4755 25.2121 39.1741 24.961 38.2952 24.961H36.8136C35.9347 24.961 35.6334 25.2121 35.6334 26.091V27.5726C35.6334 28.4515 35.9347 28.7026 36.8136 28.7026ZM11.7774 36.9392H13.2589C14.1378 36.9392 14.4392 36.6629 14.4392 35.784V34.3024C14.4392 33.4235 14.1378 33.1724 13.2589 33.1724H11.7774C10.8985 33.1724 10.5971 33.4235 10.5971 34.3024V35.784C10.5971 36.6629 10.8985 36.9392 11.7774 36.9392ZM20.1145 36.9392H21.596C22.4749 36.9392 22.7762 36.6629 22.7762 35.784V34.3024C22.7762 33.4235 22.4749 33.1724 21.596 33.1724H20.1145C19.2355 33.1724 18.9592 33.4235 18.9592 34.3024V35.784C18.9592 36.6629 19.2355 36.9392 20.1145 36.9392ZM28.4766 36.9392H29.933C30.8371 36.9392 31.1133 36.6629 31.1133 35.784V34.3024C31.1133 33.4235 30.8371 33.1724 29.933 33.1724H28.4766C27.5976 33.1724 27.2964 33.4235 27.2964 34.3024V35.784C27.2964 36.6629 27.5976 36.9392 28.4766 36.9392Z" fill="#4A7DA3"/>
</svg>
