<svg width="60" height="49" viewBox="0 0 60 49" fill="none" xmlns="http://www.w3.org/2000/svg">
<path d="M59.3908 28.5327L45.4495 14.5914V5.39738C45.4495 4.25116 44.5202 3.32288 43.375 3.32288C42.2278 3.32288 41.2995 4.25116 41.2995 5.39738V10.4434L31.4648 0.607668C30.6566 -0.202556 29.3419 -0.202556 28.5337 0.607668L0.607668 28.5327C-0.202556 29.3439 -0.202556 30.6556 0.607668 31.4658C1.41688 32.276 2.7306 32.276 3.54082 31.4658L29.9987 5.00689L56.4577 31.4658C56.8623 31.8674 57.396 32.0753 57.9258 32.0753C58.4524 32.0753 58.9862 31.8724 59.3908 31.4658C60.201 30.6536 60.201 29.3429 59.3908 28.5327Z" fill="#4A7DA3"/>
<path d="M53.4548 30.9129L31.4648 8.92077C31.0763 8.53231 30.5486 8.31335 29.9977 8.31335C29.4478 8.31335 28.9201 8.53231 28.5316 8.92077L6.54154 30.9129C6.24792 31.2035 6.05016 31.5778 5.97146 31.9844C5.90991 32.3012 5.87964 32.6231 5.87964 32.9349V43.6686C5.87964 46.4322 8.12869 48.6843 10.8933 48.6843H21.6271C23.0175 48.6843 24.3584 48.0971 25.3048 47.0709C26.1665 46.1396 26.6408 44.9319 26.6408 43.6676V35.7853C26.6408 33.8723 28.1068 32.274 30.0007 32.0944C31.8956 32.274 33.3617 33.8723 33.3617 35.7853V43.6676C33.3617 44.9309 33.8379 46.1396 34.6976 47.0709C35.644 48.0971 36.987 48.6843 38.3764 48.6843H49.1101C51.8748 48.6843 54.1258 46.4353 54.1258 43.6676V32.9379C54.1258 32.6231 54.0946 32.3023 54.033 31.9885C53.9513 31.5778 53.7495 31.2035 53.4548 30.9129Z" fill="#4A7DA3"/>
</svg>
