<svg width="51" height="47" viewBox="0 0 51 47" fill="none" xmlns="http://www.w3.org/2000/svg">
<path fill-rule="evenodd" clip-rule="evenodd" d="M25.035 27.738C34.5107 27.738 42.4543 32.8557 44.5222 41.607H5.54776C7.61566 32.8557 15.5593 27.738 25.035 27.738ZM15.021 13.869C15.021 8.76983 19.5123 4.623 25.035 4.623C30.5577 4.623 35.049 8.76983 35.049 13.869C35.049 18.9682 30.5577 23.115 25.035 23.115C19.5123 23.115 15.021 18.9682 15.021 13.869ZM34.4431 24.6706C37.8629 22.1302 40.056 18.2377 40.056 13.869C40.056 6.20869 33.3316 0 25.035 0C16.7384 0 10.014 6.20869 10.014 13.869C10.014 18.2377 12.2071 22.1302 15.6269 24.6706C6.46655 27.8489 0 35.7011 0 46.23H50.07C50.07 35.7011 43.6034 27.8489 34.4431 24.6706Z" fill="#4A7DA3"/>
</svg>
