<svg width="53" height="44" viewBox="0 0 53 44" fill="none" xmlns="http://www.w3.org/2000/svg">
<path d="M27 28C30.3137 28 33 25.0898 33 21.5C33 17.9102 30.3137 15 27 15C23.6863 15 21 17.9102 21 21.5C21 25.0898 23.6863 28 27 28Z" stroke="#4A7DA3" stroke-width="3" stroke-linecap="round" stroke-linejoin="round"/>
<path d="M45.2756 16.979C44.3233 16.9696 43.3904 16.734 42.5696 16.2957C41.7487 15.8574 41.0689 15.2317 40.5971 14.4809C40.1256 13.7301 39.8788 12.8803 39.8815 12.0161C39.8843 11.1519 40.1362 10.3034 40.6124 9.55503L40.9396 9.0353C41.2969 8.48553 41.5248 7.87469 41.6094 7.24108C41.6939 6.6075 41.6331 5.96493 41.4308 5.35369C41.2284 4.74245 40.8889 4.17581 40.4338 3.68936C39.9784 3.20292 39.4171 2.8071 38.7853 2.52695C37.4599 1.94926 35.9445 1.84236 34.5366 2.22699C33.1289 2.61163 31.9304 3.46009 31.1769 4.60573C30.6907 5.33303 30.0062 5.93429 29.1894 6.35162C28.3724 6.76892 27.451 6.98824 26.5137 6.98824C25.5764 6.98824 24.6547 6.76892 23.8379 6.35162C23.0212 5.93429 22.3364 5.33303 21.8505 4.60573C21.097 3.46009 19.8985 2.61163 18.4906 2.22699C17.0828 1.84236 15.5674 1.94926 14.2421 2.52695C13.6101 2.8071 13.0489 3.20292 12.5936 3.68936C12.1383 4.17581 11.7988 4.74245 11.5965 5.35369C11.3942 5.96493 11.3334 6.6075 11.4179 7.24108C11.5024 7.87469 11.7305 8.48553 12.0877 9.0353L12.4149 9.55503C12.8912 10.3034 13.1431 11.1519 13.1458 12.0161C13.1485 12.8803 12.9018 13.7301 12.4302 14.4809C11.9586 15.2317 11.2785 15.8574 10.4577 16.2957C9.63692 16.734 8.70403 16.9696 7.75173 16.979C6.42497 16.9493 5.12912 17.345 4.09179 18.0963C3.05448 18.8474 2.34197 19.9063 2.07949 21.0869C1.94314 21.8036 1.98257 22.5388 2.19493 23.2401C2.40725 23.9414 2.78737 24.5918 3.3081 25.1446C3.82882 25.6974 4.47739 26.1392 5.20771 26.4388C5.93806 26.7383 6.73215 26.8882 7.53354 26.8776H7.86084C8.81311 26.887 9.74603 27.1226 10.5668 27.5608C11.3876 27.9991 12.0676 28.6249 12.5392 29.3758C13.0108 30.1263 13.2576 30.9764 13.2549 31.8405C13.2522 32.7047 13.0003 33.5532 12.524 34.3015L12.3876 34.4995C11.6736 35.6465 11.4793 37.0006 11.8458 38.2753C12.2122 39.55 13.1106 40.6453 14.3511 41.3295C15.5878 41.9754 17.0542 42.1558 18.4358 41.8319C19.8174 41.5082 21.0041 40.7059 21.7414 39.5973L21.7959 39.2508C22.2822 38.5235 22.9666 37.9222 23.7834 37.505C24.6001 37.0878 25.5216 36.8683 26.4591 36.8683C27.3964 36.8683 28.3181 37.0878 29.1349 37.505C29.9516 37.9222 30.6361 38.5235 31.1223 39.2508L31.3132 39.5973C32.0506 40.7126 33.2423 41.5196 34.6304 41.8438C36.0187 42.168 37.4916 41.9834 38.7307 41.3295C39.9524 40.6607 40.8365 39.5837 41.1932 38.33C41.5502 37.0761 41.3514 35.7455 40.6397 34.6232L40.476 34.351C39.9999 33.6027 39.7479 32.7541 39.7452 31.8898C39.7425 31.0256 39.9893 30.1761 40.4608 29.4252C40.9323 28.6744 41.6124 28.0486 42.4332 27.6103C43.2541 27.1721 44.187 26.9365 45.1392 26.9271H45.4665C46.2677 26.9377 47.0621 26.788 47.7924 26.4883C48.5227 26.1889 49.1711 25.7467 49.692 25.1938C50.2126 24.641 50.5927 23.9909 50.8052 23.2896C51.0173 22.5883 51.0569 21.8531 50.9205 21.1364C50.6702 19.9511 49.9663 18.884 48.9336 18.1233C47.9009 17.3626 46.6053 16.9575 45.2756 16.979Z" stroke="#4A7DA3" stroke-width="3" stroke-linecap="round" stroke-linejoin="round"/>
</svg>
